{
	"asset":{
		"generator":"Khronos glTF Blender I/O v4.1.63",
		"version":"2.0"
	},
	"scene":0,
	"scenes":[
		{
			"name":"Scene",
			"nodes":[
				0,
				1,
				2,
				3,
				4,
				5,
				6,
				7,
				8,
				9,
				10,
				11,
				12,
				13,
				14,
				15,
				16,
				17,
				18,
				19,
				20
			]
		}
	],
	"nodes":[
		{
			"mesh":0,
			"name":"\ud0d0\uad6c\uad00",
			"scale":[
				9.5,
				1,
				1.5
			],
			"translation":[
				13.5,
				-1.5,
				-3.5
			]
		},
		{
			"mesh":1,
			"name":"\ud615\uc124\uad00",
			"scale":[
				9.5,
				1,
				1.5
			],
			"translation":[
				13.5,
				-1.5,
				5.5
			]
		},
		{
			"mesh":2,
			"name":"\ubcf8\uad002",
			"scale":[
				3,
				1,
				6
			],
			"translation":[
				7,
				0,
				-13
			]
		},
		{
			"mesh":3,
			"name":"\uc9c1\ub140\uad00",
			"scale":[
				2,
				1,
				7
			],
			"translation":[
				-19,
				-5.960464113741182e-05,
				-19
			]
		},
		{
			"mesh":4,
			"name":"\ubcf8\uad001",
			"rotation":[
				0,
				0.7071068286895752,
				0,
				0.7071068286895752
			],
			"scale":[
				3,
				1,
				6
			],
			"translation":[
				16,
				0,
				-22
			]
		},
		{
			"mesh":5,
			"name":"\ubc31\uc591\uad00",
			"scale":[
				2,
				1,
				4.5
			],
			"translation":[
				-17,
				-5.960464113741182e-05,
				-31.5
			]
		},
		{
			"mesh":6,
			"name":"\uc608\uc9c0\uad00",
			"scale":[
				3.5,
				1,
				7
			],
			"translation":[
				28.5,
				-5.960464113741182e-05,
				-36
			]
		},
		{
			"mesh":7,
			"name":"\uacac\uc6b0\uad00",
			"scale":[
				2,
				1,
				8
			],
			"translation":[
				-5,
				0,
				-19.5
			]
		},
		{
			"mesh":8,
			"name":"\ucc3d\uc870\uad00",
			"scale":[
				6,
				1,
				3
			],
			"translation":[
				-8,
				-1.5,
				-2
			]
		},
		{
			"mesh":9,
			"name":"\uc9c0\uba74",
			"scale":[
				45.32088088989258,
				1,
				45.32088088989258
			],
			"translation":[
				-0.037507057189941406,
				-5.960464113741182e-05,
				-0.022423744201660156
			]
		},
		{
			"mesh":10,
			"name":"DDC",
			"scale":[
				4,
				1,
				10
			],
			"translation":[
				23,
				-1.5,
				-10
			]
		},
		{
			"mesh":11,
			"name":"\ud3c9\uba74",
			"scale":[
				2,
				1,
				4
			],
			"translation":[
				1,
				2.5,
				-3
			]
		},
		{
			"mesh":12,
			"name":"\ud050\ube0c",
			"scale":[
				2,
				4,
				2
			],
			"translation":[
				-1,
				2,
				-19
			]
		},
		{
			"mesh":13,
			"name":"\ud050\ube0c.001",
			"scale":[
				5,
				1.5,
				1
			],
			"translation":[
				2.5,
				3.25,
				-19.5
			]
		},
		{
			"mesh":14,
			"name":"\ud050\ube0c.002",
			"scale":[
				7,
				2,
				1.5
			],
			"translation":[
				1.5,
				6.75,
				0.25
			]
		},
		{
			"mesh":15,
			"name":"\ud050\ube0c.003",
			"scale":[
				1.5,
				9,
				4.5
			],
			"translation":[
				5.75,
				7,
				1.75
			]
		},
		{
			"mesh":16,
			"name":"\ud050\ube0c.004",
			"scale":[
				2.5,
				11,
				2
			],
			"translation":[
				6.5,
				0,
				-6
			]
		},
		{
			"mesh":17,
			"name":"\ud050\ube0c.006",
			"scale":[
				1,
				4.5,
				1
			],
			"translation":[
				-2.5,
				-5.960464113741182e-05,
				-18.5
			]
		},
		{
			"mesh":18,
			"name":"\ud3c9\uba74.002",
			"scale":[
				2,
				1,
				1
			],
			"translation":[
				-2,
				1.0947237014770508,
				-20.5
			]
		},
		{
			"mesh":19,
			"name":"\ud3c9\uba74.001",
			"scale":[
				20,
				1,
				28
			],
			"translation":[
				-13,
				1,
				-17
			]
		},
		{
			"mesh":20,
			"name":"\ud050\ube0c.005",
			"scale":[
				1.5,
				10,
				3
			],
			"translation":[
				22.25,
				6.5,
				-0.5
			]
		}
	],
	"meshes":[
		{
			"name":"\ud3c9\uba74.001",
			"primitives":[
				{
					"attributes":{
						"POSITION":0,
						"NORMAL":1,
						"TEXCOORD_0":2
					},
					"indices":3
				}
			]
		},
		{
			"name":"\ud3c9\uba74.002",
			"primitives":[
				{
					"attributes":{
						"POSITION":4,
						"NORMAL":5,
						"TEXCOORD_0":6
					},
					"indices":7
				}
			]
		},
		{
			"name":"\ud3c9\uba74.007",
			"primitives":[
				{
					"attributes":{
						"POSITION":8,
						"NORMAL":9,
						"TEXCOORD_0":10
					},
					"indices":11
				}
			]
		},
		{
			"name":"\ud3c9\uba74.012",
			"primitives":[
				{
					"attributes":{
						"POSITION":12,
						"NORMAL":13,
						"TEXCOORD_0":14
					},
					"indices":11
				}
			]
		},
		{
			"name":"\ud3c9\uba74.017",
			"primitives":[
				{
					"attributes":{
						"POSITION":15,
						"NORMAL":16,
						"TEXCOORD_0":17
					},
					"indices":18
				}
			]
		},
		{
			"name":"\ud3c9\uba74.019",
			"primitives":[
				{
					"attributes":{
						"POSITION":19,
						"NORMAL":20
					},
					"indices":21
				}
			]
		},
		{
			"name":"\ud3c9\uba74.020",
			"primitives":[
				{
					"attributes":{
						"POSITION":22,
						"NORMAL":23
					},
					"indices":11
				}
			]
		},
		{
			"name":"\ud3c9\uba74.022",
			"primitives":[
				{
					"attributes":{
						"POSITION":24,
						"NORMAL":25,
						"TEXCOORD_0":26
					},
					"indices":27
				}
			]
		},
		{
			"name":"\ud3c9\uba74.023",
			"primitives":[
				{
					"attributes":{
						"POSITION":28,
						"NORMAL":29
					},
					"indices":30
				}
			]
		},
		{
			"name":"\ud3c9\uba74.024",
			"primitives":[
				{
					"attributes":{
						"POSITION":31,
						"NORMAL":32
					},
					"indices":33
				}
			]
		},
		{
			"name":"\ud3c9\uba74.026",
			"primitives":[
				{
					"attributes":{
						"POSITION":34,
						"NORMAL":35
					},
					"indices":36
				}
			]
		},
		{
			"name":"\ud3c9\uba74.027",
			"primitives":[
				{
					"attributes":{
						"POSITION":37,
						"NORMAL":38,
						"TEXCOORD_0":39
					},
					"indices":40
				}
			]
		},
		{
			"name":"\ud050\ube0c",
			"primitives":[
				{
					"attributes":{
						"POSITION":41,
						"NORMAL":42,
						"TEXCOORD_0":43
					},
					"indices":44
				}
			]
		},
		{
			"name":"\ud050\ube0c.001",
			"primitives":[
				{
					"attributes":{
						"POSITION":45,
						"NORMAL":46,
						"TEXCOORD_0":47
					},
					"indices":44
				}
			]
		},
		{
			"name":"\ud050\ube0c.002",
			"primitives":[
				{
					"attributes":{
						"POSITION":48,
						"NORMAL":49,
						"TEXCOORD_0":50
					},
					"indices":44
				}
			]
		},
		{
			"name":"\ud050\ube0c.003",
			"primitives":[
				{
					"attributes":{
						"POSITION":51,
						"NORMAL":52,
						"TEXCOORD_0":53
					},
					"indices":44
				}
			]
		},
		{
			"name":"\ud050\ube0c.004",
			"primitives":[
				{
					"attributes":{
						"POSITION":54,
						"NORMAL":55,
						"TEXCOORD_0":56
					},
					"indices":44
				}
			]
		},
		{
			"name":"\ud050\ube0c.006",
			"primitives":[
				{
					"attributes":{
						"POSITION":57,
						"NORMAL":58,
						"TEXCOORD_0":59
					},
					"indices":44
				}
			]
		},
		{
			"name":"\ud3c9\uba74.031",
			"primitives":[
				{
					"attributes":{
						"POSITION":60,
						"NORMAL":61
					},
					"indices":62
				}
			]
		},
		{
			"name":"\ud3c9\uba74.034",
			"primitives":[
				{
					"attributes":{
						"POSITION":63,
						"NORMAL":64
					},
					"indices":65
				}
			]
		},
		{
			"name":"\ud050\ube0c.008",
			"primitives":[
				{
					"attributes":{
						"POSITION":66,
						"NORMAL":67,
						"TEXCOORD_0":68
					},
					"indices":44
				}
			]
		}
	],
	"accessors":[
		{
			"bufferView":0,
			"componentType":5126,
			"count":44,
			"max":[
				1,
				13,
				1.9999998807907104
			],
			"min":[
				-1,
				0,
				-1
			],
			"type":"VEC3"
		},
		{
			"bufferView":1,
			"componentType":5126,
			"count":44,
			"type":"VEC3"
		},
		{
			"bufferView":2,
			"componentType":5126,
			"count":44,
			"type":"VEC2"
		},
		{
			"bufferView":3,
			"componentType":5123,
			"count":66,
			"type":"SCALAR"
		},
		{
			"bufferView":4,
			"componentType":5126,
			"count":48,
			"max":[
				1,
				15.5,
				1
			],
			"min":[
				-1,
				0,
				-3
			],
			"type":"VEC3"
		},
		{
			"bufferView":5,
			"componentType":5126,
			"count":48,
			"type":"VEC3"
		},
		{
			"bufferView":6,
			"componentType":5126,
			"count":48,
			"type":"VEC2"
		},
		{
			"bufferView":7,
			"componentType":5123,
			"count":72,
			"type":"SCALAR"
		},
		{
			"bufferView":8,
			"componentType":5126,
			"count":24,
			"max":[
				1,
				5.671213150024414,
				1
			],
			"min":[
				-1,
				0,
				-1
			],
			"type":"VEC3"
		},
		{
			"bufferView":9,
			"componentType":5126,
			"count":24,
			"type":"VEC3"
		},
		{
			"bufferView":10,
			"componentType":5126,
			"count":24,
			"type":"VEC2"
		},
		{
			"bufferView":11,
			"componentType":5123,
			"count":36,
			"type":"SCALAR"
		},
		{
			"bufferView":12,
			"componentType":5126,
			"count":24,
			"max":[
				1,
				6.097510814666748,
				1
			],
			"min":[
				-1,
				0,
				-1
			],
			"type":"VEC3"
		},
		{
			"bufferView":13,
			"componentType":5126,
			"count":24,
			"type":"VEC3"
		},
		{
			"bufferView":14,
			"componentType":5126,
			"count":24,
			"type":"VEC2"
		},
		{
			"bufferView":15,
			"componentType":5126,
			"count":114,
			"max":[
				1.0000003576278687,
				4,
				1
			],
			"min":[
				-1,
				0,
				-2
			],
			"type":"VEC3"
		},
		{
			"bufferView":16,
			"componentType":5126,
			"count":114,
			"type":"VEC3"
		},
		{
			"bufferView":17,
			"componentType":5126,
			"count":114,
			"type":"VEC2"
		},
		{
			"bufferView":18,
			"componentType":5123,
			"count":168,
			"type":"SCALAR"
		},
		{
			"bufferView":19,
			"componentType":5126,
			"count":24,
			"max":[
				1,
				7,
				1
			],
			"min":[
				-1,
				0,
				-1
			],
			"type":"VEC3"
		},
		{
			"bufferView":20,
			"componentType":5126,
			"count":24,
			"type":"VEC3"
		},
		{
			"bufferView":21,
			"componentType":5123,
			"count":36,
			"type":"SCALAR"
		},
		{
			"bufferView":22,
			"componentType":5126,
			"count":24,
			"max":[
				1,
				11.257121086120605,
				1
			],
			"min":[
				-1,
				0,
				-1
			],
			"type":"VEC3"
		},
		{
			"bufferView":23,
			"componentType":5126,
			"count":24,
			"type":"VEC3"
		},
		{
			"bufferView":24,
			"componentType":5126,
			"count":96,
			"max":[
				1,
				7,
				1.5625
			],
			"min":[
				-4.5,
				0,
				-2.0625
			],
			"type":"VEC3"
		},
		{
			"bufferView":25,
			"componentType":5126,
			"count":96,
			"type":"VEC3"
		},
		{
			"bufferView":26,
			"componentType":5126,
			"count":96,
			"type":"VEC2"
		},
		{
			"bufferView":27,
			"componentType":5123,
			"count":144,
			"type":"SCALAR"
		},
		{
			"bufferView":28,
			"componentType":5126,
			"count":24,
			"max":[
				1,
				17.947826385498047,
				1
			],
			"min":[
				-1,
				0,
				-1
			],
			"type":"VEC3"
		},
		{
			"bufferView":29,
			"componentType":5126,
			"count":24,
			"type":"VEC3"
		},
		{
			"bufferView":30,
			"componentType":5123,
			"count":36,
			"type":"SCALAR"
		},
		{
			"bufferView":31,
			"componentType":5126,
			"count":8,
			"max":[
				1,
				0.050596922636032104,
				1.0003184080123901
			],
			"min":[
				-1.0000941753387451,
				0,
				-1
			],
			"type":"VEC3"
		},
		{
			"bufferView":32,
			"componentType":5126,
			"count":8,
			"type":"VEC3"
		},
		{
			"bufferView":33,
			"componentType":5123,
			"count":12,
			"type":"SCALAR"
		},
		{
			"bufferView":34,
			"componentType":5126,
			"count":24,
			"max":[
				0.5,
				13,
				0.5
			],
			"min":[
				-0.5,
				0,
				-0.5
			],
			"type":"VEC3"
		},
		{
			"bufferView":35,
			"componentType":5126,
			"count":24,
			"type":"VEC3"
		},
		{
			"bufferView":36,
			"componentType":5123,
			"count":36,
			"type":"SCALAR"
		},
		{
			"bufferView":37,
			"componentType":5126,
			"count":72,
			"max":[
				14.481246948242188,
				0,
				9.500249862670898
			],
			"min":[
				-15.518753051757812,
				-5,
				-4
			],
			"type":"VEC3"
		},
		{
			"bufferView":38,
			"componentType":5126,
			"count":72,
			"type":"VEC3"
		},
		{
			"bufferView":39,
			"componentType":5126,
			"count":72,
			"type":"VEC2"
		},
		{
			"bufferView":40,
			"componentType":5123,
			"count":108,
			"type":"SCALAR"
		},
		{
			"bufferView":41,
			"componentType":5126,
			"count":24,
			"max":[
				0.5,
				0.5,
				0.5
			],
			"min":[
				-0.5,
				-0.5,
				-0.5
			],
			"type":"VEC3"
		},
		{
			"bufferView":42,
			"componentType":5126,
			"count":24,
			"type":"VEC3"
		},
		{
			"bufferView":43,
			"componentType":5126,
			"count":24,
			"type":"VEC2"
		},
		{
			"bufferView":44,
			"componentType":5123,
			"count":36,
			"type":"SCALAR"
		},
		{
			"bufferView":45,
			"componentType":5126,
			"count":24,
			"max":[
				0.5,
				0.5,
				0.5
			],
			"min":[
				-0.5,
				-0.5,
				-0.5
			],
			"type":"VEC3"
		},
		{
			"bufferView":46,
			"componentType":5126,
			"count":24,
			"type":"VEC3"
		},
		{
			"bufferView":47,
			"componentType":5126,
			"count":24,
			"type":"VEC2"
		},
		{
			"bufferView":48,
			"componentType":5126,
			"count":24,
			"max":[
				0.5,
				0.5,
				0.5
			],
			"min":[
				-0.5,
				-0.5,
				-0.5
			],
			"type":"VEC3"
		},
		{
			"bufferView":49,
			"componentType":5126,
			"count":24,
			"type":"VEC3"
		},
		{
			"bufferView":50,
			"componentType":5126,
			"count":24,
			"type":"VEC2"
		},
		{
			"bufferView":51,
			"componentType":5126,
			"count":24,
			"max":[
				0.5,
				0.5,
				0.5
			],
			"min":[
				-0.5,
				-0.5,
				-0.5
			],
			"type":"VEC3"
		},
		{
			"bufferView":52,
			"componentType":5126,
			"count":24,
			"type":"VEC3"
		},
		{
			"bufferView":53,
			"componentType":5126,
			"count":24,
			"type":"VEC2"
		},
		{
			"bufferView":54,
			"componentType":5126,
			"count":24,
			"max":[
				0.5,
				0.5,
				0.5
			],
			"min":[
				-0.5,
				-0.5,
				-0.5
			],
			"type":"VEC3"
		},
		{
			"bufferView":55,
			"componentType":5126,
			"count":24,
			"type":"VEC3"
		},
		{
			"bufferView":56,
			"componentType":5126,
			"count":24,
			"type":"VEC2"
		},
		{
			"bufferView":57,
			"componentType":5126,
			"count":24,
			"max":[
				0.5,
				0.5,
				0.5
			],
			"min":[
				-0.5,
				-0.5,
				-0.5
			],
			"type":"VEC3"
		},
		{
			"bufferView":58,
			"componentType":5126,
			"count":24,
			"type":"VEC3"
		},
		{
			"bufferView":59,
			"componentType":5126,
			"count":24,
			"type":"VEC2"
		},
		{
			"bufferView":60,
			"componentType":5126,
			"count":98,
			"max":[
				1,
				-0.06845629215240479,
				15.5
			],
			"min":[
				-0.5,
				-2.3289644718170166,
				-3.990513324737549
			],
			"type":"VEC3"
		},
		{
			"bufferView":61,
			"componentType":5126,
			"count":98,
			"type":"VEC3"
		},
		{
			"bufferView":62,
			"componentType":5123,
			"count":156,
			"type":"SCALAR"
		},
		{
			"bufferView":63,
			"componentType":5126,
			"count":24,
			"max":[
				0.5,
				0,
				0.5
			],
			"min":[
				-0.5000000596046448,
				-1,
				-0.7500000596046448
			],
			"type":"VEC3"
		},
		{
			"bufferView":64,
			"componentType":5126,
			"count":24,
			"type":"VEC3"
		},
		{
			"bufferView":65,
			"componentType":5123,
			"count":36,
			"type":"SCALAR"
		},
		{
			"bufferView":66,
			"componentType":5126,
			"count":24,
			"max":[
				0.5,
				0.5,
				0.5
			],
			"min":[
				-0.5,
				-0.5,
				-0.5
			],
			"type":"VEC3"
		},
		{
			"bufferView":67,
			"componentType":5126,
			"count":24,
			"type":"VEC3"
		},
		{
			"bufferView":68,
			"componentType":5126,
			"count":24,
			"type":"VEC2"
		}
	],
	"bufferViews":[
		{
			"buffer":0,
			"byteLength":528,
			"byteOffset":0,
			"target":34962
		},
		{
			"buffer":0,
			"byteLength":528,
			"byteOffset":528,
			"target":34962
		},
		{
			"buffer":0,
			"byteLength":352,
			"byteOffset":1056,
			"target":34962
		},
		{
			"buffer":0,
			"byteLength":132,
			"byteOffset":1408,
			"target":34963
		},
		{
			"buffer":0,
			"byteLength":576,
			"byteOffset":1540,
			"target":34962
		},
		{
			"buffer":0,
			"byteLength":576,
			"byteOffset":2116,
			"target":34962
		},
		{
			"buffer":0,
			"byteLength":384,
			"byteOffset":2692,
			"target":34962
		},
		{
			"buffer":0,
			"byteLength":144,
			"byteOffset":3076,
			"target":34963
		},
		{
			"buffer":0,
			"byteLength":288,
			"byteOffset":3220,
			"target":34962
		},
		{
			"buffer":0,
			"byteLength":288,
			"byteOffset":3508,
			"target":34962
		},
		{
			"buffer":0,
			"byteLength":192,
			"byteOffset":3796,
			"target":34962
		},
		{
			"buffer":0,
			"byteLength":72,
			"byteOffset":3988,
			"target":34963
		},
		{
			"buffer":0,
			"byteLength":288,
			"byteOffset":4060,
			"target":34962
		},
		{
			"buffer":0,
			"byteLength":288,
			"byteOffset":4348,
			"target":34962
		},
		{
			"buffer":0,
			"byteLength":192,
			"byteOffset":4636,
			"target":34962
		},
		{
			"buffer":0,
			"byteLength":1368,
			"byteOffset":4828,
			"target":34962
		},
		{
			"buffer":0,
			"byteLength":1368,
			"byteOffset":6196,
			"target":34962
		},
		{
			"buffer":0,
			"byteLength":912,
			"byteOffset":7564,
			"target":34962
		},
		{
			"buffer":0,
			"byteLength":336,
			"byteOffset":8476,
			"target":34963
		},
		{
			"buffer":0,
			"byteLength":288,
			"byteOffset":8812,
			"target":34962
		},
		{
			"buffer":0,
			"byteLength":288,
			"byteOffset":9100,
			"target":34962
		},
		{
			"buffer":0,
			"byteLength":72,
			"byteOffset":9388,
			"target":34963
		},
		{
			"buffer":0,
			"byteLength":288,
			"byteOffset":9460,
			"target":34962
		},
		{
			"buffer":0,
			"byteLength":288,
			"byteOffset":9748,
			"target":34962
		},
		{
			"buffer":0,
			"byteLength":1152,
			"byteOffset":10036,
			"target":34962
		},
		{
			"buffer":0,
			"byteLength":1152,
			"byteOffset":11188,
			"target":34962
		},
		{
			"buffer":0,
			"byteLength":768,
			"byteOffset":12340,
			"target":34962
		},
		{
			"buffer":0,
			"byteLength":288,
			"byteOffset":13108,
			"target":34963
		},
		{
			"buffer":0,
			"byteLength":288,
			"byteOffset":13396,
			"target":34962
		},
		{
			"buffer":0,
			"byteLength":288,
			"byteOffset":13684,
			"target":34962
		},
		{
			"buffer":0,
			"byteLength":72,
			"byteOffset":13972,
			"target":34963
		},
		{
			"buffer":0,
			"byteLength":96,
			"byteOffset":14044,
			"target":34962
		},
		{
			"buffer":0,
			"byteLength":96,
			"byteOffset":14140,
			"target":34962
		},
		{
			"buffer":0,
			"byteLength":24,
			"byteOffset":14236,
			"target":34963
		},
		{
			"buffer":0,
			"byteLength":288,
			"byteOffset":14260,
			"target":34962
		},
		{
			"buffer":0,
			"byteLength":288,
			"byteOffset":14548,
			"target":34962
		},
		{
			"buffer":0,
			"byteLength":72,
			"byteOffset":14836,
			"target":34963
		},
		{
			"buffer":0,
			"byteLength":864,
			"byteOffset":14908,
			"target":34962
		},
		{
			"buffer":0,
			"byteLength":864,
			"byteOffset":15772,
			"target":34962
		},
		{
			"buffer":0,
			"byteLength":576,
			"byteOffset":16636,
			"target":34962
		},
		{
			"buffer":0,
			"byteLength":216,
			"byteOffset":17212,
			"target":34963
		},
		{
			"buffer":0,
			"byteLength":288,
			"byteOffset":17428,
			"target":34962
		},
		{
			"buffer":0,
			"byteLength":288,
			"byteOffset":17716,
			"target":34962
		},
		{
			"buffer":0,
			"byteLength":192,
			"byteOffset":18004,
			"target":34962
		},
		{
			"buffer":0,
			"byteLength":72,
			"byteOffset":18196,
			"target":34963
		},
		{
			"buffer":0,
			"byteLength":288,
			"byteOffset":18268,
			"target":34962
		},
		{
			"buffer":0,
			"byteLength":288,
			"byteOffset":18556,
			"target":34962
		},
		{
			"buffer":0,
			"byteLength":192,
			"byteOffset":18844,
			"target":34962
		},
		{
			"buffer":0,
			"byteLength":288,
			"byteOffset":19036,
			"target":34962
		},
		{
			"buffer":0,
			"byteLength":288,
			"byteOffset":19324,
			"target":34962
		},
		{
			"buffer":0,
			"byteLength":192,
			"byteOffset":19612,
			"target":34962
		},
		{
			"buffer":0,
			"byteLength":288,
			"byteOffset":19804,
			"target":34962
		},
		{
			"buffer":0,
			"byteLength":288,
			"byteOffset":20092,
			"target":34962
		},
		{
			"buffer":0,
			"byteLength":192,
			"byteOffset":20380,
			"target":34962
		},
		{
			"buffer":0,
			"byteLength":288,
			"byteOffset":20572,
			"target":34962
		},
		{
			"buffer":0,
			"byteLength":288,
			"byteOffset":20860,
			"target":34962
		},
		{
			"buffer":0,
			"byteLength":192,
			"byteOffset":21148,
			"target":34962
		},
		{
			"buffer":0,
			"byteLength":288,
			"byteOffset":21340,
			"target":34962
		},
		{
			"buffer":0,
			"byteLength":288,
			"byteOffset":21628,
			"target":34962
		},
		{
			"buffer":0,
			"byteLength":192,
			"byteOffset":21916,
			"target":34962
		},
		{
			"buffer":0,
			"byteLength":1176,
			"byteOffset":22108,
			"target":34962
		},
		{
			"buffer":0,
			"byteLength":1176,
			"byteOffset":23284,
			"target":34962
		},
		{
			"buffer":0,
			"byteLength":312,
			"byteOffset":24460,
			"target":34963
		},
		{
			"buffer":0,
			"byteLength":288,
			"byteOffset":24772,
			"target":34962
		},
		{
			"buffer":0,
			"byteLength":288,
			"byteOffset":25060,
			"target":34962
		},
		{
			"buffer":0,
			"byteLength":72,
			"byteOffset":25348,
			"target":34963
		},
		{
			"buffer":0,
			"byteLength":288,
			"byteOffset":25420,
			"target":34962
		},
		{
			"buffer":0,
			"byteLength":288,
			"byteOffset":25708,
			"target":34962
		},
		{
			"buffer":0,
			"byteLength":192,
			"byteOffset":25996,
			"target":34962
		}
	],
	"buffers":[
		{
			"byteLength":26188,
			"uri":"map.bin"
		}
	]
}
